<?xml version="1.0" standalone="no"?>
<!DOCTYPE svg PUBLIC "-//W3C//DTD SVG 20010904//EN"
 "http://www.w3.org/TR/2001/REC-SVG-20010904/DTD/svg10.dtd">
<svg version="1.0" xmlns="http://www.w3.org/2000/svg"
 width="310.000000pt" height="310.000000pt" viewBox="0 0 310.000000 310.000000"
 preserveAspectRatio="xMidYMid meet">
<metadata>
Created by potrace 1.11, written by Peter Selinger 2001-2013
</metadata>
<g transform="translate(0.000000,310.000000) scale(0.100000,-0.100000)"
fill="#000000" stroke="none">
<path d="M1368 2277 c-123 -95 -228 -176 -235 -180 -7 -4 -61 17 -122 47
l-109 55 -341 -259 -340 -260 -110 0 -111 0 0 -505 0 -505 1550 0 1550 0 0
505 0 505 -102 0 -103 0 -365 286 c-201 157 -370 287 -377 290 -6 3 -37 -13
-67 -36 -34 -25 -62 -40 -71 -36 -9 3 -102 61 -208 129 -105 68 -197 127 -204
130 -6 4 -106 -66 -235 -166z m452 7 l204 -132 43 31 c24 18 52 38 62 45 16
11 61 -21 390 -278 l373 -290 94 0 94 0 0 -490 0 -490 -1530 0 -1530 0 0 490
0 490 103 0 102 0 207 158 c113 86 259 198 324 247 65 50 126 94 136 99 15 7
44 -3 127 -44 l109 -53 233 181 c128 99 238 178 244 174 5 -3 102 -66 215
-138z"/>
<path d="M1475 1993 c-52 -41 -80 -73 -107 -122 l-37 -66 35 -62 c25 -45 31
-63 21 -63 -8 0 -36 -9 -63 -19 -27 -11 -67 -26 -89 -35 -37 -14 -10 -15 374
-15 l414 -1 -7 31 c-3 18 -2 37 2 43 5 6 21 43 36 82 l27 72 -20 33 c-14 23
-21 51 -21 88 0 50 -1 53 -22 47 -13 -3 -26 -6 -30 -6 -5 0 -8 -64 -8 -142 l0
-143 -57 65 c-32 36 -76 85 -99 109 l-41 45 -24 -37 c-13 -20 -28 -37 -33 -37
-4 0 -35 19 -67 43 -46 33 -63 53 -80 95 -12 28 -24 52 -28 52 -3 -1 -37 -26
-76 -57z"/>
<path d="M2333 1867 c-5 -12 -16 -44 -24 -71 -12 -43 -24 -57 -97 -115 l-83
-66 170 -3 c93 -1 248 -1 345 0 l175 3 -118 93 c-65 51 -156 112 -203 137 -85
44 -85 44 -80 19 l5 -26 -40 25 -40 26 -10 -22z"/>
<path d="M962 1814 c-8 -13 -14 -14 -48 -4 -34 10 -50 9 -104 -8 -36 -11 -64
-24 -64 -28 2 -10 -29 -71 -49 -95 -11 -15 -84 -45 -131 -55 -57 -11 0 -14
273 -14 l302 0 66 47 66 47 -26 21 c-15 11 -40 29 -57 38 l-30 18 0 -33 -1
-33 -37 44 c-31 35 -43 42 -60 37 -15 -5 -30 -1 -48 13 -32 25 -40 26 -52 5z"/>
<path d="M630 1493 c-31 -11 -60 -47 -60 -74 0 -46 37 -76 119 -98 40 -10 78
-25 82 -33 28 -44 -11 -82 -83 -81 -44 1 -56 5 -75 28 -25 29 -57 28 -51 -1 7
-37 56 -59 128 -59 80 0 123 23 128 70 8 69 -12 87 -129 119 -68 19 -86 37
-71 70 19 43 119 46 145 5 20 -32 54 -19 41 15 -14 36 -118 59 -174 39z"/>
<path d="M888 1494 c-5 -4 -8 -76 -8 -161 l0 -153 100 0 c94 0 103 2 125 25
33 32 34 86 3 115 -12 11 -26 20 -32 20 -5 0 0 10 12 23 32 34 30 91 -3 113
-27 17 -184 32 -197 18z m163 -44 c11 -6 19 -21 19 -35 0 -39 -25 -55 -86 -55
l-54 0 0 50 0 50 51 0 c28 0 59 -5 70 -10z m-4 -131 c32 -12 43 -26 43 -56 0
-34 -37 -53 -102 -53 l-58 0 0 60 0 60 44 0 c25 0 57 -5 73 -11z"/>
<path d="M1200 1340 c0 -153 1 -160 20 -160 18 0 20 7 20 70 l0 70 90 0 90 0
0 -70 c0 -64 2 -70 20 -70 20 0 20 5 18 157 -3 139 -5 158 -20 161 -14 3 -18
-7 -20 -65 l-3 -68 -87 -3 -88 -3 0 71 c0 63 -2 70 -20 70 -19 0 -20 -7 -20
-160z"/>
<path d="M1540 1341 c0 -154 1 -161 20 -161 18 0 20 7 20 59 l0 59 74 4 c63 3
79 7 101 28 22 21 25 31 23 74 -4 72 -31 89 -148 94 l-90 4 0 -161z m182 102
c18 -16 24 -58 10 -80 -12 -18 -59 -33 -108 -33 l-44 0 0 65 0 65 62 0 c43 0
67 -5 80 -17z"/>
<path d="M1818 1495 c-2 -3 16 -75 41 -160 44 -150 46 -155 73 -155 30 0 30 2
69 150 21 80 39 122 39 91 0 -8 14 -65 31 -127 30 -109 33 -114 58 -114 27 0
29 5 71 148 24 81 46 153 48 160 3 10 -3 13 -19 10 -21 -3 -28 -16 -61 -133
-20 -71 -37 -132 -38 -135 -1 -3 -18 56 -39 130 -32 114 -41 135 -59 138 -22
3 -24 -3 -73 -186 -12 -45 -24 -81 -26 -79 -2 2 -17 53 -33 113 -17 60 -35
119 -40 132 -9 20 -30 29 -42 17z"/>
<path d="M2298 1494 c-5 -4 -8 -76 -8 -161 0 -146 1 -153 20 -153 18 0 20 7
20 60 l0 60 68 0 c86 0 128 23 138 75 8 42 -8 85 -38 104 -24 15 -189 28 -200
15z m177 -48 c23 -17 24 -71 2 -93 -11 -11 -35 -16 -79 -17 l-63 -1 -3 63 -3
62 64 0 c37 0 71 -6 82 -14z"/>
<path d="M420 1005 c0 -50 4 -85 10 -85 6 0 10 5 10 10 0 6 7 6 19 -1 25 -16
49 -5 61 26 21 55 -17 108 -60 85 -18 -10 -20 -8 -20 20 0 16 -4 30 -10 30 -6
0 -10 -35 -10 -85z m86 -1 c4 -14 2 -36 -5 -50 -20 -44 -61 -23 -61 31 0 38 6
45 36 45 17 0 25 -7 30 -26z"/>
<path d="M564 1005 c0 -49 1 -71 3 -48 2 23 2 64 0 90 -2 26 -3 8 -3 -42z"/>
<path d="M130 1006 c0 -75 16 -114 22 -54 3 31 6 33 43 36 58 4 83 43 49 76
-10 10 -33 16 -65 16 l-49 0 0 -74z m101 48 c20 -24 -1 -48 -45 -52 -35 -3
-36 -2 -36 32 0 34 2 36 34 36 18 0 39 -7 47 -16z"/>
<path d="M840 1071 c0 -32 43 -152 54 -148 6 2 18 29 26 59 8 31 18 59 22 63
3 4 12 -18 19 -48 22 -100 37 -101 64 -5 9 34 19 68 22 75 3 7 1 13 -5 13 -5
0 -18 -29 -27 -65 -10 -36 -21 -63 -24 -59 -3 3 -13 31 -22 62 -8 31 -20 57
-26 59 -5 2 -19 -27 -30 -64 l-20 -68 -18 60 c-17 59 -35 93 -35 66z"/>
<path d="M2091 998 c1 -56 4 -72 8 -48 6 33 9 35 48 38 51 4 72 30 54 68 -9
21 -18 24 -61 24 l-50 0 1 -82z m92 50 c16 -24 -9 -48 -49 -48 -31 0 -34 3
-34 28 0 16 3 32 7 36 13 12 66 2 76 -16z"/>
<path d="M1128 1058 c-3 -7 -2 -40 1 -73 5 -50 9 -60 26 -63 16 -3 18 -1 8 9
-7 7 -13 32 -13 55 0 25 5 44 13 47 10 4 10 6 0 6 -7 1 -13 8 -13 16 0 18 -16
20 -22 3z"/>
<path d="M676 1034 c-9 -9 -16 -32 -16 -55 0 -33 4 -41 26 -51 28 -13 54 -3
62 23 4 10 -1 9 -15 -4 -36 -32 -71 6 -56 61 6 24 41 30 61 10 9 -9 12 -9 12
0 0 12 -31 32 -49 32 -5 0 -17 -7 -25 -16z"/>
<path d="M1231 1041 c-8 -5 -20 -7 -28 -4 -10 4 -13 -9 -13 -56 0 -75 18 -81
22 -8 3 48 5 52 31 55 27 3 27 2 27 -52 0 -31 5 -56 10 -56 6 0 10 24 10 53 0
67 -21 92 -59 68z"/>
<path d="M1342 1034 c-44 -31 -19 -114 35 -114 11 0 26 7 33 15 15 18 7 19
-19 3 -15 -9 -23 -9 -35 1 -30 25 -19 41 30 41 42 0 45 1 39 23 -7 24 -32 47
-50 47 -6 0 -21 -7 -33 -16z m66 -26 c3 -15 -4 -18 -32 -18 -34 0 -47 15 -29
34 13 13 58 1 61 -16z"/>
<path d="M1466 1034 c-24 -24 -20 -34 24 -51 41 -17 52 -39 24 -50 -9 -3 -25
-1 -35 5 -26 16 -34 15 -19 -3 16 -20 64 -19 81 1 18 21 1 46 -40 58 -44 13
-42 39 4 34 36 -4 47 5 19 16 -25 10 -42 7 -58 -10z"/>
<path d="M1586 1034 c-24 -24 -20 -34 24 -51 41 -17 52 -39 24 -50 -9 -3 -25
-1 -35 5 -26 16 -34 15 -19 -3 16 -20 64 -19 81 1 18 21 1 46 -40 58 -44 13
-42 39 4 34 39 -4 48 6 13 16 -32 8 -35 8 -52 -10z"/>
<path d="M1791 1041 c-8 -5 -20 -7 -28 -4 -10 4 -13 -9 -13 -58 0 -72 17 -71
22 1 3 40 6 45 28 45 23 0 25 -4 28 -52 4 -67 22 -70 22 -4 0 32 -6 55 -16 65
-18 18 -24 19 -43 7z"/>
<path d="M1897 1037 c-14 -10 -18 -23 -15 -56 4 -53 26 -73 59 -53 19 12 20
11 17 -10 -3 -20 -8 -23 -42 -22 -36 2 -38 0 -21 -12 24 -18 35 -18 63 2 19
13 22 24 22 84 0 59 -2 69 -17 68 -10 0 -25 2 -33 6 -9 3 -24 1 -33 -7z m61
-48 c3 -39 -15 -63 -41 -53 -19 7 -28 42 -20 72 4 18 12 22 32 20 22 -3 26 -9
29 -39z"/>
<path d="M2275 1041 c-3 -6 -12 -8 -20 -4 -12 4 -15 -6 -15 -56 0 -34 4 -61
10 -61 6 0 10 23 10 50 0 43 3 52 22 59 13 5 17 10 10 15 -6 3 -13 2 -17 -3z"/>
<path d="M2338 1039 c-13 -7 -18 -23 -18 -52 0 -48 13 -67 46 -67 32 0 54 26
54 65 0 54 -39 80 -82 54z m62 -29 c25 -46 -27 -105 -57 -64 -14 19 -17 43 -7
68 9 23 51 20 64 -4z"/>
<path d="M2466 1034 c-12 -11 -16 -29 -14 -57 4 -49 27 -68 59 -49 19 12 20
11 17 -10 -2 -19 -9 -23 -35 -22 -36 2 -44 -11 -14 -21 21 -6 52 3 63 19 4 6
8 41 8 78 0 57 -2 67 -17 66 -10 0 -25 2 -34 6 -10 4 -23 0 -33 -10z m62 -45
c3 -39 -15 -63 -42 -53 -11 4 -16 18 -16 43 0 44 7 53 35 49 15 -2 21 -12 23
-39z"/>
<path d="M2620 1040 c-8 -5 -18 -6 -22 -4 -4 3 -7 -23 -7 -58 l2 -63 6 49 c5
30 14 54 26 62 21 16 17 28 -5 14z"/>
<path d="M2684 1035 c-17 -13 -16 -14 19 -8 29 4 37 2 37 -10 0 -9 -14 -18
-37 -24 -31 -7 -38 -13 -38 -32 0 -34 29 -50 57 -32 16 10 23 10 26 2 2 -6 11
-11 20 -11 12 0 13 3 4 12 -7 7 -12 31 -12 55 0 32 -5 45 -19 53 -26 13 -34
13 -57 -5z m56 -69 c0 -20 -27 -39 -45 -32 -8 3 -15 15 -15 26 0 16 7 20 30
20 19 0 30 -5 30 -14z"/>
<path d="M2835 1040 c-3 -5 -12 -7 -20 -3 -12 4 -15 -7 -15 -58 0 -72 17 -71
22 1 3 38 7 46 26 48 21 3 22 0 22 -52 0 -71 18 -74 22 -3 3 45 6 52 25 55 23
3 22 4 36 -88 3 -14 5 0 6 31 1 66 -14 88 -49 69 -16 -9 -25 -9 -33 -1 -14 14
-34 14 -42 1z"/>
<path d="M292 989 c3 -60 24 -82 58 -61 13 8 20 8 20 1 0 -5 5 -7 10 -4 6 3
10 31 10 61 0 30 -4 54 -10 54 -5 0 -10 -20 -10 -44 0 -46 -19 -72 -45 -62
-11 4 -15 20 -15 56 0 28 -5 50 -11 50 -6 0 -9 -20 -7 -51z"/>
<path d="M610 979 c0 -37 4 -58 10 -54 6 3 10 31 10 61 0 30 -4 54 -10 54 -6
0 -10 -27 -10 -61z"/>
<path d="M1070 980 c0 -33 4 -60 10 -60 6 0 10 27 10 60 0 33 -4 60 -10 60 -6
0 -10 -27 -10 -60z"/>
<path d="M1703 980 c0 -36 2 -50 4 -32 2 17 2 47 0 65 -2 17 -4 3 -4 -33z"/>
</g>
</svg>
